<?xml version="1.0" standalone="no"?>
<!DOCTYPE svg PUBLIC "-//W3C//DTD SVG 20010904//EN"
 "http://www.w3.org/TR/2001/REC-SVG-20010904/DTD/svg10.dtd">
<svg version="1.0" xmlns="http://www.w3.org/2000/svg"
 width="600.000000pt" height="220.000000pt" viewBox="0 0 600.000000 220.000000"
 preserveAspectRatio="xMidYMid meet">
<g transform="translate(0.000000,220.000000) scale(0.100000,-0.100000)"
fill="#335154" stroke="#335154" stroke-width="25">

<path d="M4773 2130 c-127 -26 -203 -115 -203 -237 1 -75 25 -129 81 -176 102
-88 264 -87 361 1 53 48 78 102 78 173 0 157 -152 272 -317 239z m135 -35 c75
-32 121 -101 129 -196 5 -50 2 -67 -21 -114 -37 -75 -93 -109 -180 -109 -67 1
-105 16 -150 61 -106 104 -79 302 49 359 41 18 128 17 173 -1z"/>
<path d="M10 2119 c0 -4 9 -9 20 -12 19 -5 20 -14 20 -216 0 -204 -1 -211 -20
-211 -11 0 -20 -4 -20 -10 0 -6 30 -10 71 -10 44 0 68 4 64 10 -3 6 -15 10
-26 10 -19 0 -19 7 -17 213 3 211 3 212 26 215 49 7 18 18 -48 18 -38 -1 -70
-4 -70 -7z"/>
<path d="M580 2121 c0 -3 10 -11 23 -16 22 -10 22 -14 25 -195 3 -208 0 -230
-28 -230 -11 0 -20 -4 -20 -10 0 -6 27 -10 60 -10 65 0 74 5 35 20 l-25 10 0
185 c0 102 1 185 3 185 1 0 76 -90 167 -199 96 -117 172 -200 183 -200 16 -1
17 16 17 219 l0 220 25 6 c14 3 25 9 25 13 0 9 -117 7 -126 -2 -4 -4 2 -7 13
-7 40 0 44 -19 41 -204 l-3 -176 -166 198 c-165 196 -166 197 -207 199 -23 0
-42 -2 -42 -6z"/>
<path d="M1495 2120 c-10 -19 -14 -80 -5 -80 5 0 10 5 10 10 0 6 9 19 20 30
16 16 33 20 90 20 l70 0 -2 -207 c-3 -207 -3 -208 -25 -211 -51 -7 -19 -22 47
-22 66 0 98 15 48 22 -23 3 -23 4 -26 211 l-2 207 66 0 c60 0 68 -3 94 -30 15
-16 30 -30 32 -30 2 0 2 18 -1 41 l-6 41 -203 1 c-112 1 -205 0 -207 -3z"/>
<path d="M2330 2118 c0 -4 10 -8 23 -10 22 -3 22 -4 25 -211 l2 -207 -25 -10
c-14 -5 -25 -12 -25 -15 0 -3 85 -5 189 -5 l189 0 4 45 c2 25 2 45 0 45 -1 0
-15 -14 -31 -32 l-28 -32 -109 0 -109 -1 -3 103 -3 102 66 0 c71 0 105 -12
105 -35 0 -8 5 -15 10 -15 6 0 10 27 10 60 0 63 -8 75 -25 38 -9 -21 -18 -23
-87 -26 l-77 -3 -3 96 -3 95 108 0 c91 0 110 -3 126 -19 10 -10 21 -25 23 -32
9 -25 15 -5 11 36 l-5 40 -179 0 c-98 0 -179 -3 -179 -7z"/>
<path d="M3160 2120 c0 -3 10 -10 23 -15 22 -10 22 -12 22 -215 0 -205 0 -205
-22 -208 -51 -7 -19 -22 47 -22 66 0 98 15 48 22 -22 3 -23 8 -26 101 l-3 97
45 0 46 0 70 -106 c39 -58 77 -107 84 -110 8 -3 33 -4 57 -2 34 3 39 5 24 12
-11 4 -27 11 -35 15 -15 8 -140 179 -140 192 0 4 15 10 34 13 45 9 96 66 96
107 0 16 -7 43 -15 58 -24 47 -65 59 -217 63 -76 2 -138 1 -138 -2z m270 -35
c51 -26 63 -71 34 -126 -20 -40 -68 -59 -149 -59 l-65 0 0 100 0 100 75 0 c48
0 87 -6 105 -15z"/>
<path d="M3990 2119 c0 -4 11 -10 25 -13 l25 -6 -2 -208 c-3 -206 -3 -207 -25
-210 -51 -7 -19 -22 47 -22 75 0 85 5 45 20 l-25 10 0 205 0 205 25 6 c45 11
26 19 -45 19 -38 0 -70 -3 -70 -6z"/>
<path d="M5550 2119 c0 -4 11 -10 25 -13 l25 -6 0 -205 0 -205 -25 -10 c-40
-15 -30 -20 45 -20 66 0 98 15 48 22 -22 3 -23 8 -26 101 l-3 97 48 0 48 0 73
-110 72 -110 50 0 c52 0 70 16 23 22 -21 2 -41 23 -95 98 -37 52 -67 98 -68
103 0 4 9 7 20 7 34 0 79 28 95 60 35 68 6 141 -63 160 -41 11 -292 19 -292 9z
m296 -52 c28 -33 32 -82 8 -116 -24 -34 -74 -51 -149 -51 l-65 0 0 101 0 101
91 -4 c85 -3 92 -5 115 -31z"/>
<path d="M4626 2108 c3 -5 10 -6 15 -3 13 9 11 12 -6 12 -8 0 -12 -4 -9 -9z"/>
<path d="M3927 1689 c7 -7 15 -10 18 -7 3 3 -2 9 -12 12 -14 6 -15 5 -6 -5z"/>
<path d="M5523 1685 c0 -8 4 -12 9 -9 5 3 6 10 3 15 -9 13 -12 11 -12 -6z"/>
<path d="M2805 1307 l0 -92 58 3 c44 3 60 9 71 24 16 22 11 47 -12 64 -11 8
-12 13 -4 18 19 11 14 54 -7 66 -11 5 -39 10 -63 10 l-43 0 0 -93z m98 63 c5
-4 7 -16 5 -26 -2 -14 -14 -20 -41 -22 -35 -3 -37 -2 -37 26 0 16 3 32 6 35 8
8 55 -2 67 -13z m7 -78 c19 -16 21 -22 11 -40 -9 -17 -21 -22 -51 -22 -40 0
-40 0 -40 40 0 37 2 40 29 40 16 0 39 -8 51 -18z"/>
<path d="M3111 1348 c36 -46 41 -57 37 -93 -4 -34 -2 -41 12 -41 14 0 16 7 12
41 -4 36 1 47 37 93 36 45 39 52 21 52 -11 0 -19 -3 -18 -7 2 -5 -8 -25 -21
-46 -26 -42 -35 -40 -67 18 -10 20 -26 35 -37 35 -14 0 -9 -11 24 -52z"/>
<path d="M1685 1226 c-99 -16 -257 -60 -350 -98 -115 -47 -215 -108 -215 -130
0 -14 30 -9 36 7 3 8 52 37 107 64 389 189 855 201 916 24 13 -37 13 -45 -4
-89 -61 -160 -394 -353 -737 -428 l-28 -6 37 57 c20 32 94 145 165 252 71 106
127 196 124 199 -7 6 -56 -37 -56 -49 0 -4 -53 -88 -118 -186 -65 -98 -131
-199 -146 -226 -21 -35 -34 -47 -51 -47 -30 0 -41 -16 -19 -28 16 -9 16 -12
-3 -38 -35 -49 -193 -316 -193 -325 0 -30 30 12 131 180 l114 189 50 7 c126
16 422 137 549 224 78 53 170 143 193 189 10 21 18 59 18 89 0 58 -20 93 -74
130 -72 49 -268 66 -446 39z"/>
<path d="M2875 1170 c-3 -6 1 -7 9 -4 18 7 21 14 7 14 -6 0 -13 -4 -16 -10z"/>
<path d="M4786 1147 c3 -10 9 -15 12 -12 3 3 0 11 -7 18 -10 9 -11 8 -5 -6z"/>
<path d="M4645 1128 c-109 -58 -283 -220 -387 -359 -55 -74 -61 -78 -150 -117
-120 -52 -175 -67 -193 -52 -17 14 -10 34 27 82 16 20 24 39 19 42 -5 4 -13 1
-17 -5 -5 -9 -10 -8 -18 3 -6 8 -19 17 -28 21 -19 7 -93 -16 -118 -36 -8 -8
-53 -26 -100 -41 -47 -16 -124 -47 -172 -70 -49 -23 -88 -40 -88 -38 0 2 27
44 60 93 33 49 60 91 60 94 0 10 -23 4 -34 -9 -19 -24 -290 -129 -386 -150
-41 -9 -53 6 -45 53 5 33 4 42 -10 47 -22 9 -73 -16 -119 -57 -53 -46 -54 -30
-1 34 25 31 45 58 45 61 0 12 -21 5 -38 -12 -10 -10 -61 -37 -113 -59 -173
-77 -227 -80 -200 -14 7 16 21 37 32 47 24 21 25 37 2 32 -10 -2 -26 5 -36 15
-21 21 -50 16 -121 -20 -100 -51 -256 -62 -256 -19 0 39 -81 18 -137 -36 -47
-46 -49 -30 -3 22 37 43 50 70 32 70 -7 0 -116 -142 -136 -177 -4 -7 -4 -18
-1 -23 4 -6 37 18 75 53 38 35 84 71 102 80 32 16 34 15 56 -8 31 -34 57 -38
134 -22 l67 13 -20 -27 c-43 -61 -12 -81 69 -44 31 14 71 37 88 50 41 32 45
31 31 -4 -12 -32 -5 -59 19 -68 24 -9 94 11 197 57 48 21 87 36 87 33 0 -2
-11 -19 -25 -37 -48 -63 -23 -75 46 -23 57 43 107 72 114 66 2 -3 0 -20 -5
-38 -7 -26 -5 -36 11 -52 10 -10 26 -19 35 -19 25 0 216 66 306 105 43 19 81
35 82 35 2 0 -22 -38 -53 -84 -49 -73 -68 -92 -146 -144 -164 -110 -286 -242
-317 -343 -10 -34 -9 -42 4 -55 58 -59 210 96 411 419 18 29 150 100 265 143
62 24 99 31 76 16 -17 -11 -36 -51 -29 -62 12 -19 59 -9 121 25 35 20 66 40
69 45 14 23 23 8 10 -17 -17 -32 -5 -60 28 -68 24 -7 140 32 221 72 40 21 48
22 42 8 -25 -65 -4 -105 55 -105 44 0 166 43 262 92 45 24 86 45 91 47 5 2 -2
-10 -14 -26 -12 -17 -20 -41 -18 -54 5 -35 50 -35 225 0 206 42 363 61 509 61
86 0 124 3 124 11 0 9 -50 10 -182 6 -181 -5 -299 -21 -510 -67 -108 -24 -148
-25 -148 -7 0 16 48 84 78 111 34 29 15 39 -22 11 -73 -56 -338 -165 -401
-165 -40 0 -50 24 -31 74 20 53 30 62 191 177 229 163 350 272 343 309 -5 23
-48 22 -93 -2z m65 -18 c-24 -46 -391 -339 -425 -340 -18 0 173 198 253 262
69 55 162 109 174 102 4 -3 4 -14 -2 -24z m-2075 -399 c5 -10 -119 -92 -167
-110 -64 -24 -27 41 51 90 45 28 104 38 116 20z m1279 0 c9 -14 -157 -111
-189 -111 -26 0 20 57 73 91 45 28 105 39 116 20z m-564 -227 c0 -3 -35 -58
-77 -122 -121 -181 -251 -308 -284 -275 -9 9 -4 28 19 78 36 75 153 199 262
277 64 45 80 54 80 42z"/>
<path d="M4727 852 c-30 -31 -34 -42 -14 -42 21 0 62 49 51 60 -7 7 -19 1 -37
-18z"/>
<path d="M3572 840 c-16 -21 -19 -30 -9 -30 14 0 57 40 57 53 0 18 -28 4 -48
-23z"/>
<path d="M1376 657 c3 -10 9 -15 12 -12 3 3 0 11 -7 18 -10 9 -11 8 -5 -6z"/>
<path d="M3126 432 c-3 -5 1 -9 9 -9 8 0 12 4 9 9 -3 4 -7 8 -9 8 -2 0 -6 -4
-9 -8z"/>
<path d="M1183 135 c0 -8 4 -12 9 -9 5 3 6 10 3 15 -9 13 -12 11 -12 -6z"/>
</g>
</svg>
